<svg width="500" height="436" viewBox="0 0 500 436" fill="none" xmlns="http://www.w3.org/2000/svg">
<rect y="45.0283" width="494" height="390.635" rx="37" fill="#3B2800"/>
<rect x="4" y="39" width="496" height="391" rx="37" fill="#C79400"/>
<rect x="21" y="57.0849" width="463" height="354.465" rx="4" fill="#4A380A"/>
<rect x="21" y="61" width="461" height="351" rx="4" fill="#442604"/>
<path d="M2 393H24.3548C25.4594 393 26.3548 393.895 26.3548 395V406.871C26.3548 410.2 29.5914 411.032 31.2097 411.032H41C42.1046 411.032 43 411.928 43 413.032V434C43 435.105 42.1046 436 41 436H23.5806C4.71613 433.781 0 418.43 0 411.032V395C0 393.895 0.895429 393 2 393Z" fill="#786634"/>
<path d="M3.38721 393H24.8919C25.9965 393 26.8919 393.895 26.8919 395V406.424C26.8919 409.645 30.024 410.451 31.5901 410.451H41.0001C42.1047 410.451 43.0001 411.346 43.0001 412.451V432.613C43.0001 433.717 42.1047 434.613 41.0001 434.613H24.2072C5.9512 432.465 1.38721 417.61 1.38721 410.451V395C1.38721 393.895 2.28264 393 3.38721 393Z" fill="#FBD04E"/>
<circle cx="12.484" cy="404.097" r="2.08065" transform="rotate(-90 12.484 404.097)" fill="#603604"/>
<circle cx="30.5162" cy="423.516" r="2.08065" transform="rotate(-90 30.5162 423.516)" fill="#603604"/>
<path d="M458 434V412.258C458 411.153 458.895 410.258 460 410.258H471.548C474.8 410.258 475.613 407.097 475.613 405.516V396C475.613 394.895 476.508 394 477.613 394H498C499.105 394 500 394.895 500 396V412.968C497.832 431.394 482.839 436 475.613 436H460C458.895 436 458 435.105 458 434Z" fill="#786634"/>
<path d="M458.678 432.645V411.734C458.678 410.629 459.573 409.734 460.678 409.734H471.789C474.936 409.734 475.722 406.674 475.722 405.145V396C475.722 394.895 476.618 394 477.722 394H497.323C498.427 394 499.323 394.895 499.323 396V412.356C497.225 430.187 482.715 434.645 475.722 434.645H460.678C459.573 434.645 458.678 433.75 458.678 432.645Z" fill="#FBD04E"/>
<circle cx="469.516" cy="423.806" r="2.03226" transform="rotate(180 469.516 423.806)" fill="#603604"/>
<circle cx="488.484" cy="406.194" r="2.03226" transform="rotate(180 488.484 406.194)" fill="#603604"/>
<path d="M498 80H476.871C475.766 80 474.871 79.1046 474.871 78V66.7742C474.871 63.6 471.785 62.8065 470.242 62.8065H461C459.895 62.8065 459 61.911 459 60.8065V41C459 39.8954 459.895 39 461 39H477.516C495.503 41.1161 500 55.7527 500 62.8065V78C500 79.1046 499.105 80 498 80Z" fill="#786634"/>
<path d="M498 78.6774H477.682C476.577 78.6774 475.682 77.782 475.682 76.6774V65.8783C475.682 62.8064 472.695 62.0385 471.202 62.0385H462.323C461.218 62.0385 460.323 61.1431 460.323 60.0385V41C460.323 39.8954 461.218 39 462.323 39H478.241C495.648 41.0479 500 55.2123 500 62.0385V76.6774C500 77.782 499.105 78.6774 498 78.6774Z" fill="#FBD04E"/>
<circle cx="489.419" cy="68.0968" r="1.98387" transform="rotate(90 489.419 68.0968)" fill="#603604"/>
<circle cx="472.226" cy="49.5806" r="1.98387" transform="rotate(90 472.226 49.5806)" fill="#603604"/>
<path d="M43 41V63.3548C43 64.4594 42.1046 65.3548 41 65.3548H29.129C25.8 65.3548 24.9677 68.5914 24.9677 70.2097V80C24.9677 81.1046 24.0723 82 22.9677 82H2C0.895431 82 0 81.1046 0 80V62.5806C2.21935 43.7161 17.5699 39 24.9677 39H41C42.1046 39 43 39.8954 43 41Z" fill="#786634"/>
<path d="M43.0001 41V62.5047C43.0001 63.6093 42.1047 64.5047 41.0001 64.5047H29.5766C26.3549 64.5047 25.5495 67.6368 25.5495 69.2029V78.6129C25.5495 79.7175 24.6541 80.6129 23.5495 80.6129H3.38721C2.28264 80.6129 1.38721 79.7175 1.38721 78.6129V61.82C3.53497 43.564 18.3903 39 25.5495 39H41.0001C42.1047 39 43.0001 39.8954 43.0001 41Z" fill="#FBD04E"/>
<circle cx="31.9034" cy="50.0968" r="2.08065" fill="#603604"/>
<circle cx="12.484" cy="68.129" r="2.08065" fill="#603604"/>
<rect x="105" y="1.99998" width="285" height="90" rx="18" fill="url(#paint0_linear_562_226)"/>
<rect x="110.071" y="9.27271" width="272.845" height="79.5455" rx="16" stroke="#342609" stroke-width="10"/>
<rect x="113" y="7" width="273" height="80" rx="22.5" stroke="#C79400" stroke-width="11"/>
<path d="M136 2.5V17.5C136 18.6046 135.105 19.5 134 19.5H126C123.6 19.5 123 21.8333 123 23V29.5C123 30.6046 122.105 31.5 121 31.5H107C105.895 31.5 105 30.6046 105 29.5V17.5C106.6 3.9 117.667 0.5 123 0.5H134C135.105 0.5 136 1.39543 136 2.5Z" fill="#786634"/>
<path d="M136 2.5V16.8871C136 17.9917 135.105 18.8871 134 18.8871H126.323C124 18.8871 123.419 21.1452 123.419 22.2742V28.5C123.419 29.6046 122.524 30.5 121.419 30.5H108C106.895 30.5 106 29.6046 106 28.5V16.9516C107.548 3.79032 118.258 0.5 123.419 0.5H134C135.105 0.5 136 1.39543 136 2.5Z" fill="#FBD04E"/>
<circle cx="128" cy="8.5" r="1.5" fill="#603604"/>
<circle cx="114" cy="21.5" r="1.5" fill="#603604"/>
<path d="M107 62.5H122C123.105 62.5 124 63.3954 124 64.5V72.5C124 74.9 126.333 75.5 127.5 75.5H134C135.105 75.5 136 76.3954 136 77.5V91.5C136 92.6046 135.105 93.5 134 93.5H122C108.4 91.9 105 80.8333 105 75.5V64.5C105 63.3954 105.895 62.5 107 62.5Z" fill="#786634"/>
<path d="M108 62.5H122.387C123.492 62.5 124.387 63.3954 124.387 64.5V72.1774C124.387 74.5 126.645 75.0806 127.774 75.0806H134C135.105 75.0806 136 75.9761 136 77.0806V90.5C136 91.6046 135.105 92.5 134 92.5H122.452C109.29 90.9516 106 80.2419 106 75.0806V64.5C106 63.3954 106.895 62.5 108 62.5Z" fill="#FBD04E"/>
<circle cx="114" cy="70.5" r="1.5" transform="rotate(-90 114 70.5)" fill="#603604"/>
<circle cx="127" cy="84.5" r="1.5" transform="rotate(-90 127 84.5)" fill="#603604"/>
<path d="M389.5 31H374.5C373.395 31 372.5 30.1046 372.5 29V21C372.5 18.6 370.167 18 369 18H362.5C361.395 18 360.5 17.1046 360.5 16V2C360.5 0.895431 361.395 0 362.5 0H374.5C388.1 1.6 391.5 12.6667 391.5 18V29C391.5 30.1046 390.605 31 389.5 31Z" fill="#786634"/>
<path d="M389.5 30H375.113C374.008 30 373.113 29.1046 373.113 28V20.3226C373.113 18 370.855 17.4194 369.726 17.4194H363.5C362.395 17.4194 361.5 16.5239 361.5 15.4194V2C361.5 0.895431 362.395 0 363.5 0H375.048C388.21 1.54839 391.5 12.2581 391.5 17.4194V28C391.5 29.1046 390.605 30 389.5 30Z" fill="#FBD04E"/>
<circle cx="383.5" cy="22" r="1.5" transform="rotate(90 383.5 22)" fill="#603604"/>
<circle cx="370.5" cy="8" r="1.5" transform="rotate(90 370.5 8)" fill="#603604"/>
<path d="M360.5 91.5V76.5C360.5 75.3954 361.395 74.5 362.5 74.5H370.5C372.9 74.5 373.5 72.1667 373.5 71V64.5C373.5 63.3954 374.395 62.5 375.5 62.5H389.5C390.605 62.5 391.5 63.3954 391.5 64.5V76.5C389.9 90.1 378.833 93.5 373.5 93.5H362.5C361.395 93.5 360.5 92.6046 360.5 91.5Z" fill="#786634"/>
<path d="M361 90.5V76.1129C361 75.0083 361.895 74.1129 363 74.1129H370.677C373 74.1129 373.581 71.8548 373.581 70.7258V64.5C373.581 63.3954 374.476 62.5 375.581 62.5H389C390.105 62.5 391 63.3954 391 64.5V76.0484C389.452 89.2097 378.742 92.5 373.581 92.5H363C361.895 92.5 361 91.6046 361 90.5Z" fill="#FBD04E"/>
<circle cx="369" cy="84.5" r="1.5" transform="rotate(180 369 84.5)" fill="#603604"/>
<circle cx="383" cy="71.5" r="1.5" transform="rotate(180 383 71.5)" fill="#603604"/>
<defs>
<linearGradient id="paint0_linear_562_226" x1="105" y1="47" x2="390" y2="47" gradientUnits="userSpaceOnUse">
<stop stop-color="#6D3804"/>
<stop offset="1" stop-color="#A45F04"/>
</linearGradient>
</defs>
</svg>
