<svg width="500" height="397" viewBox="0 0 500 397" fill="none" xmlns="http://www.w3.org/2000/svg">
<rect y="6.02831" width="494" height="390.635" rx="37" fill="#3B2800"/>
<rect x="4" width="496" height="391" rx="37" fill="#C79400"/>
<rect x="21" y="18.0849" width="463" height="354.465" rx="4" fill="#4A380A"/>
<rect x="21" y="22" width="461" height="351" rx="4" fill="#442604"/>
<path d="M2 354H24.3548C25.4594 354 26.3548 354.895 26.3548 356V367.871C26.3548 371.2 29.5914 372.032 31.2097 372.032H41C42.1046 372.032 43 372.928 43 374.032V395C43 396.105 42.1046 397 41 397H23.5806C4.71613 394.781 0 379.43 0 372.032V356C0 354.895 0.895429 354 2 354Z" fill="#786634"/>
<path d="M3.38721 354H24.8919C25.9965 354 26.8919 354.895 26.8919 356V367.424C26.8919 370.645 30.024 371.451 31.5901 371.451H41.0001C42.1047 371.451 43.0001 372.346 43.0001 373.451V393.613C43.0001 394.717 42.1047 395.613 41.0001 395.613H24.2072C5.9512 393.465 1.38721 378.61 1.38721 371.451V356C1.38721 354.895 2.28264 354 3.38721 354Z" fill="#FBD04E"/>
<circle cx="12.484" cy="365.097" r="2.08065" transform="rotate(-90 12.484 365.097)" fill="#603604"/>
<circle cx="30.5162" cy="384.516" r="2.08065" transform="rotate(-90 30.5162 384.516)" fill="#603604"/>
<path d="M458 395V373.258C458 372.153 458.895 371.258 460 371.258H471.548C474.8 371.258 475.613 368.097 475.613 366.516V357C475.613 355.895 476.508 355 477.613 355H498C499.105 355 500 355.895 500 357V373.968C497.832 392.394 482.839 397 475.613 397H460C458.895 397 458 396.105 458 395Z" fill="#786634"/>
<path d="M458.678 393.645V372.734C458.678 371.629 459.573 370.734 460.678 370.734H471.789C474.936 370.734 475.722 367.674 475.722 366.145V357C475.722 355.895 476.618 355 477.722 355H497.323C498.427 355 499.323 355.895 499.323 357V373.356C497.225 391.187 482.715 395.645 475.722 395.645H460.678C459.573 395.645 458.678 394.75 458.678 393.645Z" fill="#FBD04E"/>
<circle cx="469.516" cy="384.806" r="2.03226" transform="rotate(180 469.516 384.806)" fill="#603604"/>
<circle cx="488.484" cy="367.194" r="2.03226" transform="rotate(180 488.484 367.194)" fill="#603604"/>
<path d="M498 41H476.871C475.766 41 474.871 40.1046 474.871 39V27.7742C474.871 24.6 471.785 23.8065 470.242 23.8065H461C459.895 23.8065 459 22.911 459 21.8065V2C459 0.895431 459.895 0 461 0H477.516C495.503 2.11613 500 16.7527 500 23.8065V39C500 40.1046 499.105 41 498 41Z" fill="#786634"/>
<path d="M498 39.6774H477.682C476.577 39.6774 475.682 38.782 475.682 37.6774V26.8783C475.682 23.8064 472.695 23.0385 471.202 23.0385H462.323C461.218 23.0385 460.323 22.1431 460.323 21.0385V2C460.323 0.895431 461.218 0 462.323 0H478.241C495.648 2.04787 500 16.2123 500 23.0385V37.6774C500 38.782 499.105 39.6774 498 39.6774Z" fill="#FBD04E"/>
<circle cx="489.419" cy="29.0968" r="1.98387" transform="rotate(90 489.419 29.0968)" fill="#603604"/>
<circle cx="472.226" cy="10.5806" r="1.98387" transform="rotate(90 472.226 10.5806)" fill="#603604"/>
<path d="M43 2V24.3548C43 25.4594 42.1046 26.3548 41 26.3548H29.129C25.8 26.3548 24.9677 29.5914 24.9677 31.2097V41C24.9677 42.1046 24.0723 43 22.9677 43H2C0.895431 43 0 42.1046 0 41V23.5806C2.21935 4.71613 17.5699 0 24.9677 0H41C42.1046 0 43 0.895429 43 2Z" fill="#786634"/>
<path d="M43.0001 2V23.5047C43.0001 24.6093 42.1047 25.5047 41.0001 25.5047H29.5766C26.3549 25.5047 25.5495 28.6368 25.5495 30.2029V39.6129C25.5495 40.7175 24.6541 41.6129 23.5495 41.6129H3.38721C2.28264 41.6129 1.38721 40.7175 1.38721 39.6129V22.82C3.53497 4.564 18.3903 0 25.5495 0H41.0001C42.1047 0 43.0001 0.89543 43.0001 2Z" fill="#FBD04E"/>
<circle cx="31.9034" cy="11.0968" r="2.08065" fill="#603604"/>
<circle cx="12.484" cy="29.129" r="2.08065" fill="#603604"/>
</svg>
