<svg width="287" height="94" viewBox="0 0 287 94" fill="none" xmlns="http://www.w3.org/2000/svg">
<rect y="1.99998" width="285" height="90" rx="18" fill="url(#paint0_linear_562_253)"/>
<rect x="5.0708" y="9.2727" width="272.845" height="79.5455" rx="16" stroke="#342609" stroke-width="10"/>
<rect x="8" y="7" width="273" height="80" rx="22.5" stroke="#C79400" stroke-width="11"/>
<path d="M31 2.5V17.5C31 18.6046 30.1046 19.5 29 19.5H21C18.6 19.5 18 21.8333 18 23V29.5C18 30.6046 17.1046 31.5 16 31.5H2C0.895431 31.5 0 30.6046 0 29.5V17.5C1.6 3.9 12.6667 0.5 18 0.5H29C30.1046 0.5 31 1.39543 31 2.5Z" fill="#786634"/>
<path d="M31 2.5V16.8871C31 17.9917 30.1046 18.8871 29 18.8871H21.3226C19 18.8871 18.4194 21.1452 18.4194 22.2742V28.5C18.4194 29.6046 17.5239 30.5 16.4194 30.5H3C1.89543 30.5 1 29.6046 1 28.5V16.9516C2.54839 3.79032 13.2581 0.5 18.4194 0.5H29C30.1046 0.5 31 1.39543 31 2.5Z" fill="#FBD04E"/>
<circle cx="23" cy="8.5" r="1.5" fill="#603604"/>
<circle cx="9" cy="21.5" r="1.5" fill="#603604"/>
<path d="M2 62.5H17C18.1046 62.5 19 63.3954 19 64.5V72.5C19 74.9 21.3333 75.5 22.5 75.5H29C30.1046 75.5 31 76.3954 31 77.5V91.5C31 92.6046 30.1046 93.5 29 93.5H17C3.4 91.9 0 80.8333 0 75.5V64.5C0 63.3954 0.895431 62.5 2 62.5Z" fill="#786634"/>
<path d="M3 62.5H17.3871C18.4917 62.5 19.3871 63.3954 19.3871 64.5V72.1774C19.3871 74.5 21.6452 75.0806 22.7742 75.0806H29C30.1046 75.0806 31 75.9761 31 77.0806V90.5C31 91.6046 30.1046 92.5 29 92.5H17.4516C4.29032 90.9516 1 80.2419 1 75.0806V64.5C1 63.3954 1.89543 62.5 3 62.5Z" fill="#FBD04E"/>
<circle cx="9" cy="70.5" r="1.5" transform="rotate(-90 9 70.5)" fill="#603604"/>
<circle cx="22" cy="84.5" r="1.5" transform="rotate(-90 22 84.5)" fill="#603604"/>
<path d="M284.5 31H269.5C268.395 31 267.5 30.1046 267.5 29V21C267.5 18.6 265.167 18 264 18H257.5C256.395 18 255.5 17.1046 255.5 16V2C255.5 0.895431 256.395 0 257.5 0H269.5C283.1 1.6 286.5 12.6667 286.5 18V29C286.5 30.1046 285.605 31 284.5 31Z" fill="#786634"/>
<path d="M284.5 30H270.113C269.008 30 268.113 29.1046 268.113 28V20.3226C268.113 18 265.855 17.4194 264.726 17.4194H258.5C257.395 17.4194 256.5 16.5239 256.5 15.4194V2C256.5 0.895431 257.395 0 258.5 0H270.048C283.21 1.54839 286.5 12.2581 286.5 17.4194V28C286.5 29.1046 285.605 30 284.5 30Z" fill="#FBD04E"/>
<circle cx="278.5" cy="22" r="1.5" transform="rotate(90 278.5 22)" fill="#603604"/>
<circle cx="265.5" cy="8" r="1.5" transform="rotate(90 265.5 8)" fill="#603604"/>
<path d="M255.5 91.5V76.5C255.5 75.3954 256.395 74.5 257.5 74.5H265.5C267.9 74.5 268.5 72.1667 268.5 71V64.5C268.5 63.3954 269.395 62.5 270.5 62.5H284.5C285.605 62.5 286.5 63.3954 286.5 64.5V76.5C284.9 90.1 273.833 93.5 268.5 93.5H257.5C256.395 93.5 255.5 92.6046 255.5 91.5Z" fill="#786634"/>
<path d="M256 90.5V76.1129C256 75.0083 256.895 74.1129 258 74.1129H265.677C268 74.1129 268.581 71.8548 268.581 70.7258V64.5C268.581 63.3954 269.476 62.5 270.581 62.5H284C285.105 62.5 286 63.3954 286 64.5V76.0484C284.452 89.2097 273.742 92.5 268.581 92.5H258C256.895 92.5 256 91.6046 256 90.5Z" fill="#FBD04E"/>
<circle cx="264" cy="84.5" r="1.5" transform="rotate(180 264 84.5)" fill="#603604"/>
<circle cx="278" cy="71.5" r="1.5" transform="rotate(180 278 71.5)" fill="#603604"/>
<defs>
<linearGradient id="paint0_linear_562_253" x1="0" y1="47" x2="285" y2="47" gradientUnits="userSpaceOnUse">
<stop stop-color="#6D3804"/>
<stop offset="1" stop-color="#A45F04"/>
</linearGradient>
</defs>
</svg>
