<svg width="113" height="207" viewBox="0 0 113 207" fill="none" xmlns="http://www.w3.org/2000/svg">
<path d="M99.5518 4C97.2822 4.00008 95.3076 5.52676 94.7236 7.70117L94.6709 7.91406L90.9404 24.6846L75.9463 26.9883L62.8418 15.8643L62.5488 15.6338C61.1481 14.6134 59.3155 14.3918 57.7119 15.0488L57.3721 15.2021L49.7139 19.0273C47.5433 20.1112 46.4642 22.5969 47.1543 24.9229L52.2168 41.9863L41.3779 52.2412L24.7764 47.7783L24.5723 47.7285C22.4563 47.2532 20.2632 48.1986 19.1611 50.085L14.708 57.708C13.509 59.7608 13.9216 62.3749 15.6943 63.959L27.4648 74.4756L22.7617 90.9141L7.60156 95.3301C5.46741 95.9518 4 97.908 4 100.131V106.873C4.00017 109.088 5.4574 111.038 7.58105 111.667L24.8018 116.763L27.6934 131.202L15.333 145.495C13.6177 147.479 13.7266 150.451 15.582 152.304L19.7646 156.481C21.0289 157.744 22.8713 158.235 24.5967 157.771L41.2412 153.296L52.2578 164.876L47.1543 182.077C46.4642 184.403 47.5434 186.889 49.7139 187.973L57.3193 191.771C59.1827 192.701 61.4203 192.377 62.9414 190.975L63.0859 190.835L76.0098 177.928L90.873 181.354L94.6699 199.049C95.1644 201.354 97.2014 203 99.5586 203H107.691C110.049 203 112.086 201.354 112.58 199.049L116.889 178.971C116.963 178.626 117 178.273 117 177.921V28.333C117 27.9679 116.96 27.6035 116.881 27.2471L112.579 7.91406C112.07 5.62708 110.041 4.00009 107.698 4H99.5518Z" fill="url(#paint0_linear_165_244)" stroke="#C79400" stroke-width="8"/>
<path d="M99.5518 7.5C98.8491 7.50009 98.2407 7.98798 98.0879 8.67383L93.9102 27.4473C93.8654 27.6485 93.7018 27.8017 93.498 27.833L75.125 30.6562C74.9818 30.6782 74.836 30.6367 74.7256 30.543L60.5771 18.5322C60.1193 18.1435 59.4729 18.0657 58.9355 18.334L51.2773 22.1582C50.6263 22.4833 50.3019 23.2291 50.5088 23.9268L56.0957 42.7578C56.1491 42.9383 56.0967 43.1333 55.96 43.2627L42.5625 55.9385C42.4363 56.0577 42.2575 56.1035 42.0898 56.0586L23.8672 51.1582C23.214 50.9828 22.5238 51.2665 22.1826 51.8506L17.7305 59.4736C17.3708 60.0895 17.4945 60.8734 18.0264 61.3486L31.1992 73.1201C31.342 73.2479 31.3993 73.4457 31.3467 73.6299L25.6709 93.4688C25.6236 93.6339 25.495 93.7635 25.3301 93.8115L8.58008 98.6904C7.94002 98.877 7.5 99.4641 7.5 100.131V106.873C7.50017 107.537 7.93731 108.122 8.57422 108.311L27.5293 113.92C27.7072 113.973 27.8415 114.12 27.8779 114.302L31.4141 131.955C31.4444 132.107 31.4028 132.264 31.3018 132.381L17.9805 147.784C17.4659 148.379 17.499 149.271 18.0557 149.827L22.2383 154.005C22.6175 154.383 23.17 154.531 23.6875 154.392L42.0557 149.453C42.2326 149.406 42.4216 149.458 42.5479 149.591L55.9893 163.722C56.1124 163.851 56.1571 164.037 56.1064 164.208L50.5088 183.073C50.3019 183.771 50.6263 184.517 51.2773 184.842L58.8828 188.64C59.4598 188.928 60.156 188.814 60.6123 188.358L74.7119 174.278C74.8337 174.157 75.0092 174.106 75.1768 174.145L93.5176 178.372C93.7065 178.416 93.8537 178.564 93.8945 178.754L98.0918 198.314C98.2402 199.006 98.8514 199.5 99.5586 199.5H107.691C108.399 199.5 109.01 199.006 109.158 198.314L113.467 178.236C113.489 178.133 113.5 178.027 113.5 177.921V28.333C113.5 28.2236 113.488 28.1146 113.464 28.0078L109.162 8.67383C109.009 7.98798 108.401 7.50009 107.698 7.5H99.5518Z" fill="url(#paint1_linear_165_244)" stroke="#926B0C"/>
<path d="M77.3548 87.7621V94.1525C77.3548 94.7048 76.9071 95.1525 76.3548 95.1525H52C51.4477 95.1525 51 95.6003 51 96.1525V112.847H76.3548C76.9071 112.847 77.3548 113.295 77.3548 113.847V120.268C77.3548 121.038 78.1882 121.519 78.8549 121.134L106.526 105.156C107.186 104.775 107.193 103.823 106.538 103.432L78.8676 86.9036C78.2011 86.5055 77.3548 86.9857 77.3548 87.7621Z" fill="#FBD04E"/>
<defs>
<linearGradient id="paint0_linear_165_244" x1="29" y1="43.9529" x2="112.833" y2="193.85" gradientUnits="userSpaceOnUse">
<stop stop-color="#773D00"/>
<stop offset="1" stop-color="#9D5500"/>
</linearGradient>
<linearGradient id="paint1_linear_165_244" x1="29" y1="43.9529" x2="112.833" y2="193.85" gradientUnits="userSpaceOnUse">
<stop stop-color="#773D00"/>
<stop offset="1" stop-color="#9D5500"/>
</linearGradient>
</defs>
</svg>
