<svg width="113" height="207" viewBox="0 0 113 207" fill="none" xmlns="http://www.w3.org/2000/svg">
<path d="M13.4482 4C15.7178 4.00008 17.6924 5.52676 18.2764 7.70117L18.3291 7.91406L22.0596 24.6846L37.0537 26.9883L50.1582 15.8643L50.4512 15.6338C51.8519 14.6134 53.6845 14.3918 55.2881 15.0488L55.6279 15.2021L63.2861 19.0273C65.4567 20.1112 66.5358 22.5969 65.8457 24.9229L60.7832 41.9863L71.6221 52.2412L88.2236 47.7783L88.4277 47.7285C90.5437 47.2532 92.7368 48.1986 93.8389 50.085L98.292 57.708C99.491 59.7608 99.0784 62.3749 97.3057 63.959L85.5352 74.4756L90.2383 90.9141L105.398 95.3301C107.533 95.9518 109 97.908 109 100.131V106.873C109 109.088 107.543 111.038 105.419 111.667L88.1982 116.763L85.3066 131.202L97.667 145.495C99.3823 147.479 99.2734 150.451 97.418 152.304L93.2354 156.481C91.9711 157.744 90.1287 158.235 88.4033 157.771L71.7588 153.296L60.7422 164.876L65.8457 182.077C66.5358 184.403 65.4566 186.889 63.2861 187.973L55.6807 191.771C53.8173 192.701 51.5797 192.377 50.0586 190.975L49.9141 190.835L36.9902 177.928L22.127 181.354L18.3301 199.049C17.8356 201.354 15.7986 203 13.4414 203H5.30859C2.95144 203 0.914443 201.354 0.419922 199.049L-3.88867 178.971C-3.96268 178.626 -4 178.273 -4 177.921V28.333C-3.99997 27.9679 -3.96017 27.6035 -3.88086 27.2471L0.420898 7.91406C0.929781 5.62708 2.95886 4.00009 5.30176 4H13.4482Z" fill="url(#paint0_linear_165_245)" stroke="#C79400" stroke-width="8"/>
<path d="M13.4482 7.5C14.1509 7.50009 14.7593 7.98798 14.9121 8.67383L19.0898 27.4473C19.1346 27.6485 19.2982 27.8017 19.502 27.833L37.875 30.6562C38.0182 30.6782 38.164 30.6367 38.2744 30.543L52.4229 18.5322C52.8807 18.1435 53.5271 18.0657 54.0645 18.334L61.7227 22.1582C62.3737 22.4833 62.6981 23.2291 62.4912 23.9268L56.9043 42.7578C56.8509 42.9383 56.9033 43.1333 57.04 43.2627L70.4375 55.9385C70.5637 56.0577 70.7425 56.1035 70.9102 56.0586L89.1328 51.1582C89.786 50.9828 90.4762 51.2665 90.8174 51.8506L95.2695 59.4736C95.6292 60.0895 95.5055 60.8734 94.9736 61.3486L81.8008 73.1201C81.658 73.2479 81.6007 73.4457 81.6533 73.6299L87.3291 93.4688C87.3764 93.6339 87.505 93.7635 87.6699 93.8115L104.42 98.6904C105.06 98.877 105.5 99.4641 105.5 100.131V106.873C105.5 107.537 105.063 108.122 104.426 108.311L85.4707 113.92C85.2928 113.973 85.1585 114.12 85.1221 114.302L81.5859 131.955C81.5556 132.107 81.5972 132.264 81.6982 132.381L95.0195 147.784C95.5341 148.379 95.501 149.271 94.9443 149.827L90.7617 154.005C90.3825 154.383 89.83 154.531 89.3125 154.392L70.9443 149.453C70.7674 149.406 70.5784 149.458 70.4521 149.591L57.0107 163.722C56.8876 163.851 56.8429 164.037 56.8936 164.208L62.4912 183.073C62.6981 183.771 62.3737 184.517 61.7227 184.842L54.1172 188.64C53.5402 188.928 52.844 188.814 52.3877 188.358L38.2881 174.278C38.1663 174.157 37.9908 174.106 37.8232 174.145L19.4824 178.372C19.2935 178.416 19.1463 178.564 19.1055 178.754L14.9082 198.314C14.7598 199.006 14.1486 199.5 13.4414 199.5H5.30859C4.60144 199.5 3.99015 199.006 3.8418 198.314L-0.466797 178.236C-0.488993 178.133 -0.5 178.027 -0.5 177.921V28.333C-0.499968 28.2236 -0.487623 28.1146 -0.463867 28.0078L3.83789 8.67383C3.99069 7.98798 4.59908 7.50009 5.30176 7.5H13.4482Z" fill="url(#paint1_linear_165_245)" stroke="#926B0C"/>
<path d="M35.6452 120.238V113.847C35.6452 113.295 36.0929 112.847 36.6452 112.847H61C61.5523 112.847 62 112.4 62 111.847V95.1525H36.6452C36.0929 95.1525 35.6452 94.7048 35.6452 94.1525V87.7321C35.6452 86.9623 34.8118 86.4812 34.1451 86.8661L6.47448 102.844C5.81356 103.225 5.80651 104.177 6.46172 104.568L34.1324 121.096C34.7989 121.495 35.6452 121.014 35.6452 120.238Z" fill="#432405"/>
<defs>
<linearGradient id="paint0_linear_165_245" x1="84" y1="43.9529" x2="0.167173" y2="193.85" gradientUnits="userSpaceOnUse">
<stop stop-color="#773D00"/>
<stop offset="1" stop-color="#9D5500"/>
</linearGradient>
<linearGradient id="paint1_linear_165_245" x1="84" y1="43.9529" x2="0.167173" y2="193.85" gradientUnits="userSpaceOnUse">
<stop stop-color="#773D00"/>
<stop offset="1" stop-color="#9D5500"/>
</linearGradient>
</defs>
</svg>
